<svg id="Capa_1" xmlns="http://www.w3.org/2000/svg" viewBox="0 0 294.8 73.7"><style>.st0{fill:#d6001c}</style><path d="M21.1 36h-8.7C2.7 36 3 44 3 44c0 .1-.4 8 9.2 8 8.9 0 8.9-8 8.9-8v-8zm3.1-5.6V44s0 11.1-12 11.1C-.4 55.1 0 44 0 44s-.4-11 12.4-11h8.7v-2.6c.1-2.7-.4-9.8-8.9-9.8-4.4 0-8.3 2.7-8.6 8.1-.1.6-.5 1.5-1.7 1.4-1.1-.1-1.3-1-1.3-1.6 0-6.1 4.4-11 11.6-11 10.1 0 12.2 8 12 12.9M60.1 29v24.2c0 .1-.1 1.4-1.5 1.4S57 53.2 57 53.2V29c0-2.7-1.7-8.4-8.4-8.4-5.7 0-9.2 3.6-9.2 9.2v23.4c0 .1 0 1.5-1.4 1.5s-1.6-1.4-1.6-1.4V5c0-.6.4-1.5 1.4-1.5 1.1 0 1.6.9 1.6 1.5v17c0 .1 2-4.5 9.2-4.5 9.2 0 11.5 7.6 11.5 11.5m22.8 23c8.6 0 8.6-8.1 8.6-8.1v-15s0-8.4-8.6-8.4c-8.9 0-8.9 8.4-8.9 8.4v14.9s0 8.2 8.9 8.2m-12-8.2V28.9s0-11.4 12-11.4c11.7 0 11.7 11.4 11.7 11.4v14.9S94.6 55 82.9 55c-12 .1-12-11.2-12-11.2"/><path class="st0" d="M162.1 15.1v37.7c0 .7-.4 2.8-2.7 2.8-2.7 0-3-2.2-3-2.8V15.1s0-7.1-8.1-7.1c-7.9 0-7.9 7.1-7.9 7.1v37.7c0 .9-.4 2.8-2.9 2.8-2.4.1-2.9-2-2.9-2.8V15.1s0-7.1-8.1-7.1c-8 0-8.1 7.1-8.1 7.1v37.7c0 .8-.2 2.8-2.9 2.8-2.4 0-2.8-2-2.8-2.8V15.1c-.1-3 1.7-12.9 13.8-12.9 8.9 0 11.2 5.8 11.4 5.7 0 0 2.2-5.7 10.2-5.7 14 0 14 13 14 12.9m34.1 6.2s-11.5 36.4-12 37.9c-2.8 11-10.6 11.6-10.6 11.6s-3.5.6-3.9-2.5c-.4-2.7 2.2-3 2.2-3s4.5-.8 6.1-5.8c.1-.2.7-1.9 2.2-6.6-1.3-3.5-11-30.1-11.6-31.4 0 0-.9-2.7 1.7-3.7 2.7-.9 3.7 1.5 3.7 1.5.3.7 6.2 17 9.1 24.7 3.7-11.7 7.7-24.5 7.7-24.5.2-.6 1.3-2.4 3.5-1.9 2.1.7 2.2 2.8 1.9 3.7M230 5.9c0 2.4-2.3 2.9-3 2.9h-7.4v44c0 .1-.1 2.8-2.7 2.8-2.9 0-3-2.7-3-2.7V8.7h-7.5c-.6 0-3-.5-3-2.9 0-2.5 2.3-2.9 3-2.9H227c.6.1 3 .4 3 3m31.6 0c0 2.4-2.3 2.9-3 2.9h-7.4v44c0 .1-.1 2.8-2.7 2.8-2.9 0-3-2.7-3-2.7V8.7H238c-.6 0-3-.5-3-2.9 0-2.5 2.3-2.9 3-2.9h20.6c.6.1 3 .4 3 3m33.1 38.2V44.4c-.2 3.2-2 6.3-4.6 8.4-3 2.5-6.1 3.2-9.2 3.2h-.1c-3.6 0-6.7-1-9.7-3.3-2.7-2.2-5-6.5-4.9-11.6 0-.6.2-2.7 2.6-2.8 2.6-.1 3 2.1 3 2.7.4 8.6 6.5 9.7 9 9.7h.1c4 0 8.3-3.2 8.3-7.9 0-7.3-4.3-10.1-10.4-12.7-7.3-3.8-8.4-5.1-10.3-7.5-1.4-2.2-1.9-4.9-1.9-7.7 0-1.8.7-4.7 1.7-6.3.9-1.5 2-2.7 3.2-3.5 2.4-1.9 5.8-3 9.1-3 4.4 0 7.6 1.5 9.9 3.7 2.6 2.3 3.7 5.4 3.7 9.1 0 .6-.5 2.7-3 2.7-2.2.1-2.7-2-2.7-2.6 0-3.8-2.2-7.5-7.9-7.4h-.1c-2.8 0-8.2 1.9-8.3 7.4 0 3.1 1.4 6.6 8.4 9.7 4 1.8 7.1 3.6 9.1 5 1.7 1.2 3.2 3.2 4.1 5.4 1.2 3.3 1.1 6.3.9 9"/><path d="M67 8c-.5 0-1-.2-1.3-.6-.5-.7-.4-1.7.3-2.2C70.8 1.7 76.4 0 82.8 0s12.1 1.7 16.9 4.9c.7.5.9 1.5.4 2.2-.5.7-1.5.9-2.2.4-4.2-2.9-9.3-4.4-15.1-4.4-5.7 0-10.7 1.5-14.8 4.6-.3.2-.7.3-1 .3"/><path d="M94.1 13.9c-.3 0-.6-.1-.9-.3-3-2-6.5-3-10.5-3-4.1 0-7.6 1-10.5 3-.7.5-1.7.3-2.2-.4-.5-.7-.3-1.7.4-2.2 3.4-2.3 7.6-3.5 12.3-3.5 4.6 0 8.7 1.2 12.2 3.6.7.5.9 1.5.4 2.2-.2.4-.7.6-1.2.6"/></svg>